<svg width="39" height="39" viewBox="0 0 39 39" fill="none" xmlns="http://www.w3.org/2000/svg">
<g id="LogoMark">
<path id="Vector" d="M18.3883 1.59961L17.229 4.24658C16.63 4.28299 16.0329 4.35871 15.4415 4.47281L13.6681 2.18278L11.7566 2.83268L11.7471 5.74625C10.9374 6.16246 10.1614 6.66565 9.4284 7.25293L6.72697 6.03662L5.34391 7.50773L6.72689 10.1309C6.28113 10.7666 5.89471 11.4313 5.56771 12.1185L2.60173 12.1994L1.99951 14.125L4.3942 15.889C4.27956 16.6035 4.22358 17.3254 4.22038 18.048L1.56152 19.3953L1.84001 21.3948L4.75838 21.9661C4.93236 22.5741 5.14739 23.1716 5.40584 23.7561L3.48258 26.1437L4.55607 27.8527L7.54581 27.1529C7.73396 27.3734 7.92949 27.5914 8.13371 27.8027C8.56355 28.2471 9.01464 28.6562 9.48347 29.0309L8.90266 32.0255L10.6499 33.0348L12.9326 31.0471C13.5881 31.3108 14.2607 31.5217 14.9441 31.6803L15.6892 34.6057L17.7005 34.77L18.9097 32.0111C19.7453 31.9608 20.5782 31.8359 21.3972 31.6349L23.3183 33.8607L25.1916 33.1109L25.1367 31.9825L20.764 28.6668C19.491 28.9886 18.171 29.0747 16.8744 28.9285C14.4557 28.6558 12.1312 27.5635 10.307 25.677C6.13755 21.3646 6.25676 14.5049 10.5689 10.3355C12.6576 8.31599 15.3441 7.29148 18.0338 7.26246C20.8971 7.23153 23.763 8.32856 25.9128 10.5521C29.4118 14.1712 29.8887 19.6154 27.4029 23.7371L29.8381 25.5842C30.1426 25.1059 30.4166 24.613 30.657 24.1084L33.6014 24.0274L34.2036 22.1018L31.8257 20.3499C31.941 19.6295 31.9981 18.8999 31.9994 18.1718L34.6417 16.8293L34.3633 14.8298L31.4474 14.2585C31.204 13.4211 30.8804 12.6008 30.4762 11.8114L32.2137 9.40487L31.0521 7.75521L28.1911 8.58594C28.1551 8.54786 28.1202 8.50924 28.0838 8.47168C27.6269 7.99904 27.1446 7.566 26.6413 7.17189L27.1889 4.34401L25.4414 3.3348L23.2705 5.22493C22.5677 4.94211 21.8459 4.72197 21.1139 4.55843L20.4022 1.76384L18.3883 1.59961ZM13.9585 13.292C13.1706 13.301 12.3896 13.4945 11.6733 13.8465L15.1178 16.4603C16.1596 17.2506 16.455 18.7527 15.6556 19.8071C14.856 20.862 13.3205 21.0206 12.2637 20.219L8.82162 17.6077C8.46917 19.4962 9.13659 21.4972 10.7712 22.7374C12.2371 23.8493 14.1185 24.0574 15.7391 23.4753L16.1032 23.3443L16.4102 23.5776L26.7078 31.3901L27.0148 31.6234L26.9886 32.009C26.8639 33.7267 27.5668 35.4832 29.0334 36.5959C30.668 37.8359 32.7768 37.9388 34.501 37.091L31.0591 34.4798C30.0023 33.678 29.7427 32.1561 30.5426 31.102C31.3424 30.0478 32.8687 29.9286 33.9107 30.7188L37.3528 33.3302C37.7044 31.4423 37.0397 29.4403 35.4056 28.2004C33.9345 27.0839 32.068 26.8627 30.4569 27.4362L30.095 27.5648L29.7881 27.3315L19.4904 19.5191L19.1834 19.2858L19.2096 18.9027C19.3277 17.1974 18.6117 15.4601 17.141 14.3442C16.1855 13.6193 15.0675 13.2794 13.9586 13.2921L13.9585 13.292ZM17.2768 20.1665L29.7594 29.638L28.9001 30.7734L16.415 21.2996L17.2768 20.1665Z" fill="#FAFF00"/>
</g>
</svg>
